# Blender 4.3.0
# www.blender.org
mtllib FloppyDisk_Blue.mtl
o Cube
v -0.000000 0.047949 0.286478
v -0.202571 0.047949 0.202571
v 0.286478 0.047949 0.000000
v 0.202571 0.047949 0.202571
v -0.286478 0.047949 0.000000
v -0.202571 0.047949 -0.202571
v -0.000000 0.047949 -0.286478
v 0.202571 0.047949 -0.202571
v -1.000000 0.047949 1.000000
v 1.000000 0.047949 0.000000
v 1.000000 0.047949 1.000000
v -1.000000 0.047949 0.000000
v -1.000000 0.047949 -1.000000
v 1.000000 0.047949 -1.000000
v 0.000000 0.047949 0.396316
v -0.396316 0.047949 0.396316
v 0.396316 0.047949 0.000000
v 0.396316 0.047949 0.396316
v -0.396316 0.047949 0.000000
v -0.636463 0.047949 -0.396316
v -0.000519 0.047949 -0.396316
v 0.635424 0.047949 -0.396316
v -0.000000 0.047949 0.322303
v -0.227903 0.047949 0.227903
v 0.322303 0.047949 0.000000
v 0.227903 0.047949 0.227903
v -0.322303 0.047949 0.000000
v -0.227903 0.047949 -0.227903
v -0.000000 0.047949 -0.322303
v 0.227903 0.047949 -0.227903
v -0.000000 0.033259 0.304450
v -0.215279 0.033259 0.215279
v 0.304450 0.033259 0.000000
v 0.215279 0.033259 0.215279
v -0.304450 0.033259 0.000000
v -0.215279 0.033259 -0.215279
v -0.000000 0.033259 -0.304450
v 0.215279 0.033259 -0.215279
v 0.103153 0.024420 0.103512
v 0.067524 0.047949 0.067524
v 0.000000 0.047949 0.000000
v -0.067524 0.047949 -0.067524
v -0.135047 0.047949 -0.135047
v 0.047513 0.024420 0.159785
v 0.111301 0.024420 0.222855
v 0.166941 0.024420 0.166582
v 0.079407 0.024420 0.191320
v 0.222581 0.024420 0.110309
v 0.190687 0.024420 0.078774
v 0.158793 0.024420 0.047239
v 0.158722 0.047949 0.034658
v 0.158793 0.039054 0.047239
v 0.235162 0.047949 0.110238
v 0.222581 0.039054 0.110309
v 0.079407 0.039054 0.191320
v 0.073152 0.047949 0.197646
v 0.103153 0.039054 0.103512
v 0.096894 0.047949 0.097190
v 0.034933 0.047949 0.159856
v 0.047513 0.039054 0.159785
v 0.111301 0.039054 0.222855
v 0.111372 0.047949 0.235436
v 0.173200 0.047949 0.172904
v 0.166941 0.039054 0.166582
v 0.190687 0.039054 0.078774
v 0.196942 0.047949 0.072448
v -0.048137 0.047949 0.567021
v 0.048137 0.047949 0.567021
v -0.069211 0.047949 0.617898
v 0.069211 0.047949 0.617898
v -0.000000 0.047949 0.547082
v -0.083000 0.047949 1.000000
v 0.083000 0.047949 1.000000
v -0.069227 0.047949 0.917000
v 0.069227 0.047949 0.917000
v 0.082984 0.047949 0.615158
v 0.058678 0.047949 0.556479
v -0.058678 0.047949 0.556479
v -0.082984 0.047949 0.615158
v -0.000000 0.047949 0.532174
v -0.083000 0.047949 0.917000
v 0.083000 0.047949 0.917000
v -0.069227 0.047949 0.986227
v 0.069227 0.047949 0.986227
v -0.075827 0.037879 0.992827
v 0.075827 0.037879 0.992827
v 0.075811 0.037879 0.616585
v 0.053188 0.037879 0.561970
v -0.053188 0.037879 0.561970
v -0.075811 0.037879 0.616585
v -0.000000 0.037879 0.539938
v -0.075827 0.037879 0.917000
v 0.075827 0.037879 0.917000
v -0.629080 0.047949 -1.000000
v 0.636310 0.047949 -1.000000
v -0.629080 0.047949 -1.000000
v -0.000519 0.047949 -0.396316
v 0.635424 0.047949 -0.396316
v -0.636463 0.047949 -0.396316
v 0.636310 0.047949 -1.000000
v -0.629080 -0.052051 -1.000000
v -0.000519 -0.052051 -0.396316
v 0.635424 -0.052051 -0.396316
v -0.636463 -0.052051 -0.396316
v 0.636310 -0.052051 -1.000000
v 0.600988 0.047949 -0.430802
v -0.601552 0.047949 -0.430802
v -0.595013 0.047949 -0.965514
v 0.601773 0.047949 -0.965514
v 0.616824 0.032941 -0.414943
v -0.617606 0.032941 -0.414943
v -0.610679 0.032941 -0.981373
v 0.617656 0.032941 -0.981373
v 0.616824 -0.046065 -0.414943
v -0.617606 -0.046065 -0.414943
v -0.610679 -0.046065 -0.981373
v 0.617656 -0.046065 -0.981373
v 0.635424 -0.052050 -0.396316
v -0.636463 -0.052050 -0.396316
v -0.629080 -0.052050 -1.000000
v 0.636310 -0.052050 -1.000000
v 0.600988 -0.052050 -0.430802
v -0.601552 -0.052050 -0.430802
v -0.595013 -0.052050 -0.965514
v 0.601773 -0.052050 -0.965514
v 1.000000 -0.019278 -1.000000
v 0.967228 -0.052051 -1.000000
v 0.967228 -0.052051 0.967228
v 1.000000 -0.019278 1.000000
v -0.967228 -0.052051 -1.000000
v -1.000000 -0.019278 -1.000000
v -0.967228 -0.052051 0.967228
v -1.000000 -0.019278 1.000000
vn -1.0000 -0.0000 -0.0000
vn -0.0000 -0.0000 -1.0000
vn -0.0000 -1.0000 -0.0000
vn -0.0000 1.0000 -0.0000
vn 0.2545 0.7467 -0.6145
vn -0.6145 0.7467 -0.2545
vn 0.6145 0.7467 0.2545
vn -0.2545 0.7467 0.6145
vn -0.2545 0.7467 -0.6145
vn -0.6145 0.7467 0.2545
vn 0.6145 0.7467 -0.2545
vn 0.2545 0.7467 0.6145
vn -0.2536 0.7489 0.6122
vn 0.6122 0.7489 0.2536
vn -0.6122 0.7489 -0.2536
vn 0.2536 0.7489 -0.6122
vn 0.2536 0.7489 0.6122
vn 0.6122 0.7489 -0.2536
vn -0.6122 0.7489 0.2536
vn -0.2536 0.7489 -0.6122
vn 0.7031 -0.0000 -0.7111
vn 0.7111 -0.0000 0.7031
vn -0.7111 -0.0000 -0.7031
vn -0.7031 -0.0000 0.7111
vn 0.5028 0.7071 0.4972
vn -0.5028 0.7071 -0.4972
vn 0.4972 0.7071 -0.5028
vn -0.4972 0.7071 0.5028
vn -0.7525 0.5802 0.3117
vn 0.7525 0.5802 0.3117
vn 0.3117 0.5802 0.7525
vn 0.8145 0.5802 -0.0000
vn -0.3117 0.5802 0.7525
vn -0.8145 0.5802 -0.0000
vn -0.0000 0.5482 0.8364
vn 0.7727 0.5482 -0.3201
vn -0.7727 0.5482 -0.3201
vn -0.3201 0.5482 -0.7727
vn -0.8364 0.5482 -0.0000
vn 0.3201 0.5482 -0.7727
vn 0.8364 0.5482 -0.0000
vn -1.0000 -0.0000 -0.0015
vn 0.9999 -0.0000 0.0122
vn 1.0000 -0.0000 -0.0000
vn -0.0000 0.0086 1.0000
vn 0.6274 0.7787 0.0077
vn -0.6274 0.7787 -0.0009
vn -0.0000 0.7263 0.6874
vn -0.6873 0.7263 -0.0084
vn -0.0000 0.7263 -0.6874
vn 0.6874 0.7263 0.0010
vn -0.0000 -0.9521 -0.3059
vn 0.3059 -0.9521 0.0037
vn -0.3059 -0.9521 -0.0004
vn -0.0000 -0.9356 0.3531
vn -0.3531 -0.9356 -0.0043
vn -0.0000 -0.9356 -0.3531
vn 0.3531 -0.9356 0.0005
vn 1.0000 -0.0000 0.0015
vn -0.9999 -0.0000 -0.0122
vn -0.0000 0.7787 -0.6274
vn -0.7071 -0.7071 -0.0000
vn -0.0000 -0.7071 0.7071
vn 0.7071 -0.7071 -0.0000
vt 0.735842 0.487992
vt 0.719845 0.487992
vt 0.719845 0.250033
vt 0.719845 0.012074
vt 0.735842 0.012074
vt 0.887259 0.556541
vt 0.879461 0.564339
vt 0.863463 0.564339
vt 0.863463 0.476074
vt 0.887259 0.476074
vt 0.479866 0.980163
vt 0.012038 0.980163
vt 0.012038 0.899697
vt 0.155601 0.901454
vt 0.155601 0.750124
vt 0.155601 0.598793
vt 0.012038 0.598583
vt 0.012038 0.519837
vt 0.479866 0.519837
vt 0.250000 0.155692
vt 0.155692 0.155692
vt 0.012038 0.012038
vt 0.250000 0.012038
vt 0.487962 0.012038
vt 0.344308 0.098793
vt 0.173304 0.250000
vt 0.195768 0.304232
vt 0.155692 0.344308
vt 0.155692 0.250000
vt 0.250000 0.173304
vt 0.195768 0.195768
vt 0.250000 0.326696
vt 0.304232 0.304232
vt 0.344308 0.401454
vt 0.250000 0.344308
vt 0.304232 0.195768
vt 0.487962 0.487962
vt 0.250000 0.487962
vt 0.012038 0.487962
vt 0.177552 0.250000
vt 0.198772 0.301228
vt 0.250000 0.177552
vt 0.198772 0.198772
vt 0.250000 0.322448
vt 0.301228 0.301228
vt 0.868041 0.753269
vt 0.874198 0.804497
vt 0.869981 0.807501
vt 0.863463 0.753269
vt 0.301228 0.198772
vt 0.874198 0.702041
vt 0.869981 0.699037
vt 0.868050 0.882806
vt 0.873843 0.931010
vt 0.869620 0.934034
vt 0.863463 0.882806
vt 0.250000 0.181829
vt 0.201796 0.201796
vt 0.250000 0.318171
vt 0.298204 0.298204
vt 0.318171 0.250000
vt 0.298204 0.201796
vt 0.322448 0.250000
vt 0.873842 0.834602
vt 0.869620 0.831578
vt 0.201796 0.298204
vt 0.920487 0.819686
vt 0.920487 0.812097
vt 0.923969 0.812097
vt 0.923969 0.819686
vt 0.920487 0.731040
vt 0.920487 0.717589
vt 0.923969 0.717589
vt 0.923969 0.731040
vt 0.920487 0.614607
vt 0.920487 0.601156
vt 0.923969 0.601156
vt 0.923969 0.614607
vt 0.920487 0.543309
vt 0.920487 0.524477
vt 0.931160 0.524477
vt 0.941833 0.524477
vt 0.941833 0.543309
vt 0.941833 0.562140
vt 0.931160 0.562140
vt 0.920487 0.562140
vt 0.920487 0.593686
vt 0.923969 0.593686
vt 0.920487 0.704138
vt 0.923969 0.704138
vt 0.282136 0.282136
vt 0.266068 0.266068
vt 0.250000 0.250000
vt 0.233932 0.233932
vt 0.226873 0.226943
vt 0.241753 0.212230
vt 0.232760 0.203135
vt 0.223768 0.194041
vt 0.208855 0.208785
vt 0.181829 0.250000
vt 0.193975 0.223498
vt 0.202968 0.232592
vt 0.211960 0.241687
vt 0.920487 0.628058
vt 0.923969 0.628058
vt 0.920487 0.804507
vt 0.923969 0.804507
vt 0.211977 0.238694
vt 0.225368 0.225454
vt 0.210360 0.210274
vt 0.196969 0.223515
vt 0.204473 0.231104
vt 0.223751 0.197034
vt 0.238759 0.212213
vt 0.231255 0.204624
vt 0.920487 0.586217
vt 0.923969 0.586217
vt 0.012038 0.269751
vt 0.031789 0.269751
vt 0.103616 0.269747
vt 0.117579 0.263963
vt 0.123363 0.250000
vt 0.117579 0.236037
vt 0.103616 0.230253
vt 0.031789 0.230249
vt 0.012038 0.230249
vt 0.896406 0.435146
vt 0.891391 0.447253
vt 0.879937 0.451998
vt 0.868482 0.447253
vt 0.863467 0.435146
vt 0.863463 0.363971
vt 0.863463 0.347498
vt 0.896410 0.347498
vt 0.896410 0.363971
vt 0.920487 0.245882
vt 0.920487 0.232911
vt 0.922883 0.233258
vt 0.922883 0.247195
vt 0.920487 0.026360
vt 0.920487 0.013339
vt 0.922883 0.012038
vt 0.922883 0.026028
vt 0.920487 0.678755
vt 0.922008 0.666098
vt 0.924837 0.666098
vt 0.923159 0.680061
vt 0.920487 0.115890
vt 0.920487 0.097846
vt 0.922883 0.097854
vt 0.922883 0.117605
vt 0.920487 0.653441
vt 0.923159 0.652135
vt 0.920487 0.161424
vt 0.920487 0.143380
vt 0.922883 0.141681
vt 0.922883 0.161432
vt 0.767717 0.766468
vt 0.767717 0.733522
vt 0.770466 0.731951
vt 0.770466 0.768039
vt 0.922883 0.399107
vt 0.922883 0.411190
vt 0.920487 0.410871
vt 0.920487 0.397899
vt 0.920487 0.284597
vt 0.920487 0.272468
vt 0.922883 0.271271
vt 0.922883 0.284292
vt 0.920487 0.779229
vt 0.920487 0.767774
vt 0.922883 0.767774
vt 0.922883 0.780431
vt 0.920487 0.372245
vt 0.920487 0.355772
vt 0.922883 0.355779
vt 0.922883 0.373822
vt 0.920487 0.756319
vt 0.922883 0.755117
vt 0.922883 0.482364
vt 0.922883 0.498837
vt 0.920487 0.500401
vt 0.920487 0.482357
vt 0.487962 0.399697
vt 0.487962 0.098583
vt 0.920487 0.843763
vt 0.920487 0.867840
vt 0.863463 0.155691
vt 0.863463 0.012038
vt 0.887259 0.012038
vt 0.887259 0.155691
vt 0.815590 0.798713
vt 0.815590 0.655053
vt 0.839387 0.655053
vt 0.839387 0.798713
vt 0.783715 0.487957
vt 0.767717 0.487957
vt 0.767717 0.249997
vt 0.767717 0.012038
vt 0.783715 0.012038
vt 0.783978 0.512033
vt 0.783978 0.987957
vt 0.768668 0.987957
vt 0.768668 0.769746
vt 0.768668 0.730244
vt 0.768668 0.512033
vt 0.560321 0.020444
vt 0.687561 0.020257
vt 0.687561 0.305046
vt 0.560321 0.306602
vt 0.691335 0.308774
vt 0.695768 0.313153
vt 0.552114 0.314909
vt 0.556547 0.310422
vt 0.556547 0.016675
vt 0.552114 0.012249
vt 0.695768 0.012038
vt 0.691335 0.016477
vt 0.815590 0.341050
vt 0.820103 0.337229
vt 0.820103 0.630976
vt 0.815590 0.627208
vt 0.647400 0.347391
vt 0.647400 0.633550
vt 0.520240 0.631994
vt 0.520240 0.347205
vt 0.651120 0.637370
vt 0.651120 0.343623
vt 0.655601 0.339197
vt 0.655601 0.641857
vt 0.516417 0.635722
vt 0.512038 0.640101
vt 0.819162 0.016477
vt 0.815590 0.012038
vt 0.839386 0.012038
vt 0.837962 0.016477
vt 0.837962 0.308774
vt 0.839386 0.313153
vt 0.815590 0.313153
vt 0.819162 0.308774
vt 0.516417 0.343425
vt 0.512038 0.338986
vt 0.863463 0.323421
vt 0.863463 0.179768
vt 0.887259 0.179768
vt 0.887259 0.323421
vt 0.815590 0.966450
vt 0.815590 0.822790
vt 0.839386 0.822790
vt 0.839386 0.966450
vt 0.552114 0.163579
vt 0.512038 0.109224
vt 0.534502 0.163456
vt 0.512038 0.217688
vt 0.743641 0.012038
vt 0.743641 0.480158
vt 0.487382 0.512038
vt 0.487382 0.987962
vt 0.791514 0.019801
vt 0.791514 0.487921
vt 0.879461 0.588416
vt 0.887259 0.596214
vt 0.887259 0.674960
vt 0.863463 0.674960
vt 0.863463 0.588416
s 0
usemtl Material
f 133/1/1 9/2/1 12/3/1 13/4/1 131/5/1
f 130/6/2 131/7/2 13/8/2 96/9/2 101/10/2
f 132/11/3 130/12/3 101/13/3 104/14/3 102/15/3 103/16/3 105/17/3 127/18/3 128/19/3
f 17/20/4 18/21/4 11/22/4 10/23/4 14/24/4 22/25/4
f 23/26/4 24/27/4 16/28/4 15/29/4
f 25/30/4 26/31/4 18/21/4 17/20/4
f 27/32/4 28/33/4 20/34/4 19/35/4
f 26/31/4 23/26/4 15/29/4 18/21/4
f 30/36/4 25/30/4 17/20/4 22/25/4
f 24/27/4 27/32/4 19/35/4 16/28/4
f 19/35/4 20/34/4 13/37/4 12/38/4 9/39/4 16/28/4
f 31/40/5 32/41/5 24/27/5 23/26/5
f 33/42/6 34/43/6 26/31/6 25/30/6
f 35/44/7 36/45/7 28/33/7 27/32/7
f 37/46/8 38/47/8 30/48/8 29/49/8
f 34/43/9 31/40/9 23/26/9 26/31/9
f 38/50/10 33/42/10 25/30/10 30/36/10
f 32/41/11 35/44/11 27/32/11 24/27/11
f 36/51/12 37/46/12 29/49/12 28/52/12
f 1/53/13 2/54/13 32/55/13 31/56/13
f 3/57/14 4/58/14 34/43/14 33/42/14
f 5/59/15 6/60/15 36/45/15 35/44/15
f 7/61/16 8/62/16 38/50/16 37/63/16
f 4/64/17 1/53/17 31/56/17 34/65/17
f 8/62/18 3/57/18 33/42/18 38/50/18
f 2/66/19 5/59/19 35/44/19 32/41/19
f 6/60/20 7/61/20 37/63/20 36/45/20
f 60/67/21 55/68/21 47/69/21 44/70/21
f 52/71/22 57/72/22 39/73/22 50/74/22
f 64/75/23 54/76/23 48/77/23 46/78/23
f 39/79/4 44/80/4 47/81/4 45/82/4 46/83/4 48/84/4 49/85/4 50/86/4
f 54/76/24 65/87/24 49/88/24 48/77/24
f 57/72/22 60/89/22 44/90/22 39/73/22
f 6/60/4 43/91/4 42/92/4 41/93/4 40/94/4 58/95/4 51/96/4 66/97/4 53/98/4 63/99/4 4/58/4 3/57/4 8/62/4 7/61/4
f 5/59/4 2/66/4 1/100/4 4/58/4 63/99/4 62/101/4 56/102/4 59/103/4 58/95/4 40/94/4 41/93/4 42/92/4 43/91/4 6/60/4
f 61/104/23 64/75/23 46/78/23 45/105/23
f 55/68/21 61/106/21 45/107/21 47/69/21
f 58/95/25 59/103/25 60/108/25 57/109/25
f 62/101/26 63/99/26 64/110/26 61/111/26
f 56/102/27 62/101/27 61/111/27 55/112/27
f 63/99/26 53/98/26 54/113/26 64/110/26
f 66/97/28 51/96/28 52/114/28 65/115/28
f 51/96/25 58/95/25 57/109/25 52/114/25
f 59/103/27 56/102/27 55/112/27 60/108/27
f 53/98/28 66/97/28 65/115/28 54/113/28
f 65/87/24 52/116/24 50/117/24 49/88/24
f 16/28/4 9/39/4 72/118/4 81/119/4 79/120/4 78/121/4 80/122/4 15/29/4
f 15/29/4 80/122/4 77/123/4 76/124/4 82/125/4 73/126/4 11/22/4 18/21/4
f 70/127/4 68/128/4 71/129/4 67/130/4 69/131/4 74/132/4 83/133/4 84/134/4 75/135/4
f 88/136/29 87/137/29 76/138/29 77/139/29
f 90/140/30 89/141/30 78/142/30 79/143/30
f 89/144/31 91/145/31 80/146/31 78/147/31
f 85/148/32 92/149/32 81/150/32 72/151/32
f 91/145/33 88/152/33 77/153/33 80/146/33
f 92/149/32 90/140/32 79/143/32 81/150/32
f 93/154/34 86/155/34 73/156/34 82/157/34
f 87/137/34 93/154/34 82/157/34 76/138/34
f 84/158/35 83/159/35 85/160/35 86/161/35
f 68/162/36 70/163/36 87/164/36 88/165/36
f 69/166/37 67/167/37 89/168/37 90/169/37
f 67/170/38 71/171/38 91/172/38 89/173/38
f 83/174/39 74/175/39 92/176/39 85/177/39
f 71/171/40 68/178/40 88/179/40 91/172/40
f 74/175/39 69/166/39 90/169/39 92/176/39
f 75/180/41 84/181/41 86/182/41 93/183/41
f 70/163/41 75/180/41 93/183/41 87/164/41
f 20/34/4 94/184/4 13/37/4
f 95/185/4 22/25/4 14/24/4
f 98/186/4 100/186/4 95/186/4
f 22/186/4 95/186/4 100/186/4 98/186/4
f 94/187/4 20/187/4 99/187/4 96/187/4
f 98/188/42 95/189/42 105/190/42 103/191/42
f 94/192/43 20/193/43 104/194/43 101/195/43
f 126/196/44 14/197/44 10/198/44 11/199/44 129/200/44
f 133/201/45 129/202/45 11/203/45 73/204/45 86/161/45 85/160/45 72/205/45 9/206/45
f 106/207/4 109/208/4 108/209/4 107/210/4
f 112/211/46 96/212/46 20/213/46 111/214/46
f 110/215/47 98/216/47 100/217/47 113/218/47
f 107/219/48 111/220/48 110/221/48 106/222/48
f 108/209/49 112/211/49 111/214/49 107/210/49
f 109/208/50 113/218/50 112/211/50 108/209/50
f 106/207/51 110/215/51 113/218/51 109/208/51
f 122/223/3 123/224/3 124/225/3 125/226/3
f 115/227/52 114/228/52 118/229/52 119/230/52
f 116/231/53 115/227/53 119/230/53 120/232/53
f 113/233/2 100/234/2 121/235/2 117/236/2 116/237/2 120/238/2 96/239/2 112/240/2
f 114/228/54 117/241/54 121/242/54 118/229/54
f 123/224/55 122/223/55 114/228/55 115/227/55
f 124/225/56 123/224/56 115/227/56 116/231/56
f 125/226/57 124/225/57 116/231/57 117/241/57
f 122/223/58 125/226/58 117/241/58 114/228/58
f 100/243/59 98/244/59 118/245/59 121/246/59
f 20/247/60 96/248/60 120/249/60 119/250/60
f 111/214/61 99/213/61 97/251/61 98/216/61 110/215/61
f 30/252/4 98/216/4 97/251/4 29/253/4
f 28/254/4 29/253/4 97/251/4 99/213/4
f 130/255/62 132/256/62 133/1/62 131/5/62
f 132/11/63 128/19/63 129/257/63 133/258/63
f 128/259/64 127/260/64 126/196/64 129/200/64
f 126/261/2 127/262/2 105/263/2 100/264/2 14/265/2
l 21 97
l 112 116
l 113 117
l 21 102
